<svg xmlns="http://www.w3.org/2000/svg" viewBox="0 0 512 512" role="img" aria-label="DaD">
  <defs>
    <linearGradient id="ring" x1="0%" y1="100%" x2="100%" y2="0%">
      <stop offset="0%" stop-color="#FFD54F"/>
      <stop offset="45%" stop-color="#FF4081"/>
      <stop offset="100%" stop-color="#00e676"/>
    </linearGradient>
  </defs>
  <rect width="512" height="512" rx="112" fill="#0a2342"/>
  <circle cx="256" cy="256" r="168" fill="none" stroke="url(#ring)" stroke-width="28" stroke-linecap="round" stroke-dasharray="820 180" transform="rotate(-90 256 256)"/>
  <path fill="#FF4081" d="M318 168c-8 0-14 6-14 14v8c0 18 14 32 32 32h6v24h20v-24h6c18 0 32-14 32-32v-8c0-8-6-14-14-14h-68z"/>
  <path fill="#FFD54F" d="M318 168c12-22 38-36 66-36 42 0 76 34 76 76 0 28-16 52-40 64l-10-18c8-4 14-12 14-22 0-14-12-26-26-26-8 0-15 3-20 8l-10-18z"/>
  <path fill="#ffffff" d="M238 206h-48v72c0 18 14 32 32 32s32-14 32-32v-72h-16zm-16 16v56c0 9-7 16-16 16s-16-7-16-16v-56h48z"/>
</svg>
